<?xml version="1.0" standalone="no"?>
<!DOCTYPE svg PUBLIC "-//W3C//DTD SVG 20010904//EN"
 "http://www.w3.org/TR/2001/REC-SVG-20010904/DTD/svg10.dtd">
<svg version="1.0" xmlns="http://www.w3.org/2000/svg"
 width="200.000000pt" height="252.000000pt" viewBox="0 0 200.000000 252.000000"
 preserveAspectRatio="xMidYMid meet">
<metadata>
Created by potrace 1.16, written by Peter Selinger 2001-2019
</metadata>
<g transform="translate(0.000000,252.000000) scale(0.100000,-0.100000)"
fill="#000000" stroke="none">
<path d="M883 2506 c-140 -32 -286 -141 -350 -262 -48 -90 -66 -166 -66 -269
1 -294 236 -525 534 -525 150 0 286 58 385 165 267 287 151 747 -221 875 -78
27 -203 34 -282 16z"/>
<path d="M858 1249 c-138 -20 -302 -83 -415 -160 -192 -130 -342 -339 -403
-561 -26 -95 -40 -253 -28 -316 19 -107 113 -194 222 -207 28 -3 393 -5 811
-3 l760 3 54 30 c98 54 133 123 132 261 -3 402 -280 775 -674 910 -135 46
-319 64 -459 43z"/>
</g>
</svg>
