<?xml version="1.0" standalone="no"?>
<!DOCTYPE svg PUBLIC "-//W3C//DTD SVG 20010904//EN"
 "http://www.w3.org/TR/2001/REC-SVG-20010904/DTD/svg10.dtd">
<svg version="1.0" xmlns="http://www.w3.org/2000/svg"
 width="260.000000pt" height="260.000000pt" viewBox="0 0 260.000000 260.000000"
 preserveAspectRatio="xMidYMid meet">
<metadata>
Created by potrace 1.16, written by Peter Selinger 2001-2019
</metadata>
<g transform="translate(0.000000,260.000000) scale(0.100000,-0.100000)"
fill="#000000" stroke="none">
<path d="M0 2470 l0 -129 130 -3 131 -3 229 -484 c127 -266 230 -490 230 -498
0 -8 -44 -94 -98 -191 l-97 -177 0 -75 c0 -106 46 -183 140 -233 40 -22 41
-22 858 -25 l817 -2 0 130 0 130 -761 2 c-665 3 -763 5 -771 18 -7 11 8 46 52
127 l61 112 522 3 c513 3 523 3 562 25 22 12 54 36 72 55 17 18 125 204 240
413 322 584 304 541 260 606 -49 73 20 69 -1062 69 l-970 0 -60 130 -60 130
-212 0 -213 0 0 -130z"/>
<path d="M710 511 c-141 -43 -221 -192 -176 -328 34 -103 138 -183 237 -183
142 0 269 122 269 260 0 163 -177 297 -330 251z"/>
<path d="M2010 511 c-69 -21 -131 -74 -166 -141 -27 -52 -26 -172 3 -225 86
-161 286 -193 415 -64 106 106 99 277 -16 376 -62 52 -164 75 -236 54z"/>
</g>
</svg>
