<?xml version="1.0" standalone="no"?>
<!DOCTYPE svg PUBLIC "-//W3C//DTD SVG 20010904//EN"
 "http://www.w3.org/TR/2001/REC-SVG-20010904/DTD/svg10.dtd">
<svg version="1.0" xmlns="http://www.w3.org/2000/svg"
 width="225.000000pt" height="225.000000pt" viewBox="0 0 225.000000 225.000000"
 preserveAspectRatio="xMidYMid meet">
<metadata>
Created by potrace 1.16, written by Peter Selinger 2001-2019
</metadata>
<g transform="translate(0.000000,225.000000) scale(0.100000,-0.100000)"
fill="#000000" stroke="none">
<path d="M484 2086 c-95 -22 -181 -71 -254 -145 -108 -109 -150 -214 -150
-372 0 -287 179 -560 730 -1112 249 -248 281 -277 310 -277 38 0 51 10 220
173 369 356 631 668 744 886 105 203 115 422 28 585 -42 80 -147 180 -231 220
-254 122 -530 34 -702 -222 -28 -43 -52 -77 -54 -77 -2 0 -26 34 -54 77 -83
124 -185 206 -309 249 -75 26 -200 33 -278 15z"/>
</g>
</svg>
